<?xml version="1.0" encoding="UTF-8"?>
<svg id="Layer_1" xmlns="http://www.w3.org/2000/svg" version="1.1" viewBox="0 0 60.1 84.4">
  <!-- Generator: Adobe Illustrator 29.2.1, SVG Export Plug-In . SVG Version: 2.1.0 Build 116)  -->
  <defs>
    <style>
      .st0 {
        fill: #f5ae51;
      }
    </style>
  </defs>
  <path class="st0" d="M4.3,52.9c-1.3-5.3-1.7-13.1.3-18.2s3.9-5.9,5.7-8.9.5-1.1.8-1.6c2-3.5,5.9-6.8,9.5-8.3s3.1-1.2,4-1,.3.3.5.3.5,0,.5,0c.1-.2-.2-.3-.2-.4-.2-.4.4-1.4.3-1.6-1.2-.3-2.4-.7-3.5-1.2-3.4-1.5-7.3-4.9-7.5-8.9s1.2,0,1.6,0c.7.2,1.3.3,2,.5,1.5.6,2.3,1.9,3.5,2.8,1.9,1.4,4.4,2.5,6.2,3.9s.6.5.5.8c.9-.3,1.8-.2,2.7,0s.7.3.8.3,1-.8,1.3-1c4.4-3.1,5.8-2.5,10.8-1.5s2.2.2,2.5.6.1.5,0,.7-.2.1-.3.2c-1.3,1.8-2.3,2.8-4.2,4s-.6.2-.6.5c1.1-.1,2.2.5,3.2,1,3.5,2.3,5.4,6.5,7.5,10s5,6.5,5.9,10.2c1.4,5.9.7,13.7-2.6,18.9s-1,1.3-1.1,1.5c-.2.4-.2,1.4-.4,2-.4,1.4-2.5,5.7-3.4,6.8s-.4.5-.8.4v1.3c0,.2-.3,1.1-.4,1.3-.3.6-.8,1.5-1.3.5s-.2-1-.4-.8-.3.7-.4.8c-.2.3-.7,1.2-1.1,1.3s-.4,0-.5,0,0,.2,0,.3c-1.2,2-1.7,5.1-3.3,7s-.8.7-.8.7c0,.1,0,.3,0,.5-.2.4-.6,1.4-1,1.5-.7.3-.6-.3-.9-.7s-.6-.2-.7-.7,0-.4,0-.6-.9-1-1.1-1.2c-.3-.4-.7-1-.9-1.5-.6-1.2-1.2-2.7-1-4.1l-2.1,1.5c-1.5.9-3.7,1-5.4.2s-1.1-.7-1.2-.7c-.3,0,0,.9,0,1.1,0,1.1,0,2.7-.7,3.7s-.6.8-.8.5-.1-.6-.1-.7c0-.3.4-1.7.5-2.1s0-1.3.2-2,.5-.8,0-1.2-1.2-.6-1.8-1.2c-3.4-3.5-6.8-9.4-8.6-13.9s-1-2.8-1.1-3-.1,0-.2.1c-.7.3-1.7-.5-2.3-.9s-.4-.5-.6-.3-.3,1.2-.3,1.5c-.5,1.7-1.1,3-1.1,4.8s.3,1.6.2,1.9-.4.3-.5.2c-.4-.2-.8-1.9-.9-2.4-.1-1.7.9-4.5,1.9-6s.5-.4.5-.5-.6-1.1-.7-1.4c-.4-1.3-.3-2.7-.1-4s0-.3.2-.3c0,.2.4.7.5.8,0,1.4,0,3.1.9,4.3s.8.8,1.3,1,.8.5.9.6.1,0,.1-.1c-.1-.5-.4-1.1-.5-1.6s-.4-1.8-.6-2-.4,0-.5-.2-.3-.2-.4-.3c0,.2-.3,1.2-.3,1.2-.3.2-.6-1.2-.6-1.4s0-.5,0-.7,0-.3.2-.3c0,0,.2,0,.3.2.8.7,1.8,1.6,2.8,1.9,0,.3,0,.6.1.8,1.4,5.7,5.3,12.9,9.1,17.4s.9,1.1,1,1c.1,0,.2-.4.4-.3s1.1,1.7,1.4,2.1c2,2.4,5.4,2.2,7.5.2s1.7-2.8,2.7-4.1.9-.7.8.3-.4,1.1-.2,1.2.5-.3.6-.4c1.7-2.1,3.5-5.1,4.9-7.4s2.1-3.8,2.1-4.4-.4-.3-.2-.9c.3-1.1,1.8-2.4,2-3.8s.4-2.2.5-3.1,0-.4,0-.5c0,0,.1-.1.2-.2.3.2.6,1.1,1,1.5s.6.5.6.5c-.1.3-.5.6-.8.8s-.4.1-.4.2-.4.7-.4.7c-.2.4,0,1.2-.2,1.6,0,0,.6-.4.7-.5.7-.7,1.5-1.8,1.6-2.7.5,0,1,0,1.5,0,0,.4-.2.8-.4,1.1-.7,1.4-1.9,2.7-3.3,3.4.5,1.3,1,2.9.5,4.2s-.4.8-.7.8c-.6,0-.3-1.8-.3-2.2l-.3-2.1c-.1-.1-.6.5-.6.7,0,.3.1,1,0,1.5-.1,1-2,4.3-2.6,5.3-1.3,2.3-3.5,5.7-5.5,7.4s-.7.6-.8.6c-.3,0-.3-.3-.4-.3-.4,0-.8.7-1,.9.6.8.8,1.9,1.2,2.8.8,1.9,2,2.7,3,4.3s.1.6.4.5.8-1.4.9-1.6c.3-.4.6-.8.8-1.2.9-1.7,2.2-4.7,3.4-6s.4-.3.6-.4.4-1.1.5-1.4.7-1.8,1.3-1.8.5.3.6.5,0,1,.2.8,0-.7,0-.8.1-.1.1-.2c0-.2,0-1.3.4-1.3s.2,0,.2,0c.1,0,.8-1.7,1-2,1-2,2.5-4.1,3.1-6.2s1.7-3.5,2.3-5c1.6-3.8,1.8-9.1,1.4-13.1-.6-5-3.3-7.3-5.8-11.2s-4.6-8.6-8.4-10.7-1.5-.5-2-.9,0-.4-.6-.3-.8.3-1.3.2c0,.3.2.4.4.6.6.5,1.3,1,1.9,1.5,1.2,1,2.3,2.3,3.1,3.6s.3.7.5.9.8.4,1.1.5c1.2.7,2.3,1.9,3.1,3s1.9,3.1,2.6,4.8c.2.2.5,0,.7,0,.7.2,2.4,3.1,2.6,3.8s.4,2.7,0,3.6-.3-.6-.3-.7c-.2-2-.8-3.4-2-4.9s-.1-.5-.4-.4c0,.1.4,2.1.5,2.4.3,2.2.4,4.8.2,7s-.1,1-.2,1.5c-.2-.8-.5-1.6-1-2.3s0-.2,0-.2l.2-1.5c0-3.3-.6-6.8-2.1-9.8s-2.6-3.7-4.1-5.5c-.1,0-.3-.1-.2,0,.1.6.5,1.3.6,2,2.3,3.8,5.8,7.3,5.2,12.2l-.2,1.9s-.1,0-.2,0c-.2-.1-.7-.7-.8-.8.2-1.7.2-3.3-.3-4.9s-1.1-2.4-1.7-3.4-.7-1-1-1.6c-.7,0-.5.2-.3.5.9,1.9.6,2.9,1,4.8s1.6,3.7,1.3,4.2-.6-.2-.5.4c0,0-.6.1-.6.2,0-.4,0-1,0-1.4s-.6-1.1-.8-1.5c-.7-1.6-.5-2.6-.7-4.2s-1.8-3.8-3.2-5.3-2.1-2.1-2.2-2.2c-.3,0-.7,0-1-.1-.8-.2-1.7-.6-2.5-.7-2.7-.5-5.5.2-8.2.3s-5.6-.7-7.6.5,0,.3,0,.5c.2.5-1,1.1-1.4,1.3s-.8.2-.9.2,0,.3-.1.4c-.3.5-1.2.4-1.6.7,0,0-.2,0-.2,0,0-.3-.5-.2-.4,0-.2,0-.3,0-.5,0-.3,0,0,0-.2.2s-.1,0-.2,0c-.2,0,0-.3,0-.4s-.7-.1-.9-.2-.7-.5-.7-.6c-.2-.8.9,0,1.3,0h1.5c0,0,0-.2,0-.2,0,0-1.8-.5-1.2-.8.7,0,3.4.1,3.9-.3s.2-.7.4-1c1.5-2.3,6.2-1.5,8.6-1.6s2.2-.3,3.2-.4,2,0,2.1-.2c-.4-.6-1.3-.8-2-1-.2,0,.3.8.2,1-.1.4-1.6-.5-1.9-.6s-1.3-.3-1.2-.6.3,0,.2-.2c-.2-.4-1.6-.4-1.8-.2s0,.2,0,.4c0,.5-.7.4-1,.4s-1.8.4-1.9.2.9-.6.6-.9-.4,0-.2-.3,1-.5,1.2-.6c.3-.1,1.3-.4,1.6-.4h1.2c0-.1-.3,0-.2-.3,0,0,.2,0,.2,0h1.9c.2,0,1.1.4,1.2.5.3.3,0,.4.1.6s1.6.8,1.9,1,1.2,1,1.3,1.1c.6.3,2,.2,2.9.5s1.1.9,2.5.8,1-.2,1.5-.2.6.6,0,.9-1,.2-.8.4l1.3.8,2.1,2c-.3-1.5-.8-3.1-1.5-4.5-1.5-2.8-6.3-7.3-9.4-8s-6.3.6-8.8,1.2-6.6,2.1-9,4.7-1.5,1.8-1.3,2c.4-.1.8-.4,1.2-.6s1.6-.5,1.2.1-2.2,1.4-2.6,1.7-1.5,1.2-1.6,1.5,0,.6-.2.9c-.2.7-.6,1.3-1,1.9s-1.5,1.6-1.5,1.7c0,.2.1,1,0,1.4s-.4,1.7-.4,1.8c.4,0,.2-.6.7-.5s0,.7.5.7c-.9,2-1.8,4.1-2.2,6.3s0,.3-.2.3c-.1-.5-.4-.9-.4-1.6,0-1,.5-2.2.5-3s-.1-.4-.1-.7c0-.6.1-1.5,0-2s-.2-.4-.3-.6c-.4-1.3-.1-2.3,0-3.6s0-.2,0-.3c-1.5,2.4-3.2,4.6-4,7.3-1.6,5-1.2,11.5.1,16.5s1.2,3.3,1.5,5,.4,3.1.6,4.6.1.6.2.6c.2.2.3-.3.4-.4s0-.2.2-.2v3.4c0,.1.2,1,.2,1.2,0,.3.4,1.3.5,1.5.3.4.3-.5.5-.6.6-.5.5.8.6,1.1.5,2.2,2.1,3.6,3.5,5.2.5.2.5,0,.5-.5,0,0,.4.2.4.3.7.8,1.3,1.7,2,2.5s2.8,2.5,3.2,3.6,0,.6.5.9,1.6.6,2,.7.2,0,.3,0c.1-.6.7-1.1,1-1.5.6-.9,1.2-1.8,1.1-3,.3,0,.3.6.5.7,0,.7,0,1.2-.3,1.8s-.9,1.3-1.5,2,0,.6,0,1.1-.1.7-.6.6-2.3-1.2-2.6-1.5-.4-.7-.6-1-.7-.3-.9-.4c-.7-.5-2.1-2.2-2.7-2.9s-.8-1-1.2-1.6c-.2-.1-.3.4-.6.3s-.9-.7-1.1-.9c-1.2-1.1-2.4-2.4-3.2-3.8s-.4-.6-.8-1.2c-1-1.2-1.4-3.1-1.5-4.6-.2,0-.3.2-.6.1s-.5-.5-.6-.6c-.5-.8-.6-1.9-1-2.7s-1.5-1.2-2.1-2.1c-1.3-1.9.2-4.6.4-6.6,0-.1.3,0,.4,0,0,.2.1.3.1.4.2,1.3-.5,3-.5,4.2s1.3,2.1,2.3,3c0-1.7-.4-3.4-.9-5s-.7-1.9-.9-2.8ZM16,4.4c0,0,0,.2,0,.2.1.5.7,1.5,1,2,2.1,3.2,5.8,4.7,9.3,5.8.3,0,.3-.3.5-.4s1.2-.7,1.3-.7,0-.1,0-.2c-.2-.1-1-.4-1.3-.6-1.6-.9-3.2-2.2-4.8-2.9,0-.2-.1-.2-.2-.3-.3-.2-.5-.3-.8-.5-.2-.2-.3-.4-.5-.5,0-.2,0-.1-.2-.2-.2-.5-1.2-1.3-1.7-1.5-.5-.5-1.6-.6-2.3-.7s-.3-.1-.5,0c0,0,.1.4.3.4ZM44.2,10.5c-1.9-.3-3.8-1.2-5.8-1s-3.7,1.6-5.4,2.5c0,.1.6.5.7.6.2.2.5.9.5.9s.8.2.9.2c.3,0,1.1-3.6,2.6-3.6s.5.3.4.6c-.6.7-1.1,1.5-1.7,2.3s-.9.7-.6.9c.5.4.6-.1.8-.4.7-.8,3.8-2.5,4.8-2.5s.9.7.4,1.1-2.1.8-2.7,1.1-1.3.9-2,1v.2c.1,0,1.6.9,1.6.9-.1-1,1-1.1,1.6-1.5,1.5-.8,2.6-1.9,4-2.8s.6-.1.7-.5c0-.1-.6,0-.7-.1ZM32.4,13.4c-1.1-.6-2.2-1.3-3.5-1s-1.5,1-2.1,1.6-.6.3-.5.6.5.2.8.1c1.8-.3,3.5-1,5.3-1.1v-.2ZM10.7,29.3c.2,0,.3-.1.3-.2.6-.7,1-1.6,1.6-2.4.2-.5-.2-.5.1-1.1s.8-1,1.2-1.5.2-.9.3-1.4.4-.9.5-1.3,0-.2,0-.2-1,.9-1.1,1.1c-1.5,1.9-2.5,4.6-2.9,7Z"/>
  <path class="st0" d="M12.3,58.2c0,0,.2,0,.3,0,.2.1,0,2.4,0,2.9.1,1.5.7,3.4,1.4,4.8s1.2,2.1,1.4,2.9-.2.7-.5.5-.9-1-1.1-1.3c-1.7-2.3-2.7-6-1.9-8.8s.3-.9.5-.9Z"/>
  <path class="st0" d="M7.9,48.9c.3,0,.4.1.4.3,0,.7,0,1.6,0,2.3,0,1.1.2,2.3,0,3.3s-.4,2-.9.6-.3-3.1-.1-4.4.3-2.1.6-2.2Z"/>
  <path class="st0" d="M6.1,43.3c.2-1.5,1.2-3.5,1.7-5s.4-1.8.6-2.6c0,0,.3,0,.4,0s.2.8.2,1c.1,1.8-.8,3.5-1.5,5s-.4.5-.5.9c-.2.6-.5,1.3-.5,1.9h-.2c0-.4,0-.8,0-1.1Z"/>
  <path class="st0" d="M22.2,70.9c.2,0,.3.2.4.4.3.8.5,1.9.4,2.7s-.3,1.7-.8,1.6-.1-2.3-.1-2.7,0-1.2,0-1.7,0-.2.1-.3Z"/>
  <path class="st0" d="M7.2,36.6c.3,0,.3,0,.3.3s-.4,1.4-.5,1.7-.5,1.6-.8,1.8c-.8.4-.3-1.5-.2-1.8s.8-1.9,1.2-2Z"/>
  <path class="st0" d="M9.7,40.3c.1.2.2.7,0,.6,0-.3,0-.5,0-.6Z"/>
  <path class="st0" d="M9.6,41.1c0,0,.2.3,0,.2,0,0,0-.2,0-.2Z"/>
  <path class="st0" d="M12.8,32.1c0-.1.1-.4.1-.4,0-.1-.2-.2-.1-.4,0-.3,1-1.1,1.3-1.4s.3-.6.6-.6,0,.1,0,.2-.1,0-.1,0c0,0,0,.1,0,.1-.5.7-1.1,1.5-1.6,2.3s0,.2-.2.2Z"/>
  <path class="st0" d="M12.8,32.2c0,.3-.2.5-.4.8s-.2.5-.4.5c.1-.3.3-.5.4-.8s.2-.5.4-.4Z"/>
  <path class="st0" d="M41.1,71.7c-.2-.2,0-1.4,0-1.8.3-1.2,1.1-2.9,2-3.6s.1-.2.3-.1c.4.1-.2.8-.3.9-.2.3-.3.7-.5,1.1-.3.9-.5,2.4-.9,3.2s-.5.6-.7.3Z"/>
  <path class="st0" d="M54.8,47.3s.1.7.2.8c0,.9.1,1.9,0,2.8s-.5,1.5-.7,1.8-.7,0-.6-.4c0-.8.4-1.7.6-2.4s.3-1.7.3-2.5c0-.1.3-.2.4-.1Z"/>
  <path class="st0" d="M46.3,65.2c0-.2,0-.4,0-.6,0-.5.9-2.9,1.1-3.3s0-.2.2-.2c.2,0,0,1.2,0,1.5,0,.4-.7,2.3-.9,2.5s-.3,0-.4,0Z"/>
  <path class="st0" d="M37.4,17.7c.1.1,0,.5-.2.5-1.9.4-3.7-.4-5.6-.6-4.7-.7-8.2,1.3-11.9,3.9s-.3.4-.6.3c0-.3.2-.7.4-.9,1.2-1.5,6.1-3.6,7.9-4.1s5.5.2,8.2.5,1.6.2,1.7.3Z"/>
  <path class="st0" d="M25.9,19.1c.2,0,1,0,.6.3s-.4.2-.5.3c-.5.2-2.8,1-3.4,1.1s-.2,0-.2,0c-.2-.2.5-.6.7-.7.6-.4,1.3-.7,2-.9s.5-.1.8-.2Z"/>
  <path class="st0" d="M21.2,21.8s0,.4,0,.5-1.9.5-2,.5c0-.5,1.1-1,1.5-1s.5,0,.5,0Z"/>
  <path class="st0" d="M19.9,7.1s1,.5,1.1.5c1.2.7,2.7,1.9,3.8,2.8s.7.6.8.7c.3.4,0,.5-.4.4-1.1-.4-3.9-2.9-4.8-3.8s-.5-.5-.5-.6Z"/>
  <path class="st0" d="M50,38.2c-.3,4.3-1.3,8.5-2.9,12.5s.9,1.1,1.2.3c1.7-4.1,2.7-8.4,3-12.8s-1.2-.8-1.2,0h0Z"/>
  <path class="st0" d="M51.9,38.7c-.7,4.5-1.7,8.9-3.2,13.3s.9,1.1,1.2.3c1.5-4.3,2.6-8.7,3.2-13.3s-1.1-1.1-1.2-.3h0Z"/>
  <path class="st0" d="M17,26.5c-1.4,1.1-2.8,2.3-4.1,3.5s-.2.6,0,.9.6.2.9,0c1.3-1.3,2.7-2.4,4.1-3.5s.2-.7,0-.9-.6-.2-.9,0h0Z"/>
  <path class="st0" d="M14.2,29.1c-1.3,1.9-2.6,3.9-3.7,5.9s.7,1.3,1.1.6c1.2-2,2.4-4,3.7-5.9s0-.7-.2-.9-.7,0-.9.2h0Z"/>
  <path class="st0" d="M12.6,32.1c-1.6,2.9-2.6,6.1-3,9.4s.3.6.6.6.6-.3.6-.6c.4-3.1,1.4-6.1,2.8-8.8s-.7-1.3-1.1-.6h0Z"/>
  <path class="st0" d="M10.7,40c.6,1.8.5,3.8,1,5.6s1.5,3.4,2,5.2,1.4.4,1.2-.3c-.4-1.8-1.5-3.4-2-5.2s-.4-3.8-1-5.6-1.5-.4-1.2.3h0Z"/>
  <path class="st0" d="M10.8,42.1c-.2,2.5-.7,4.9-1.3,7.3s1,1.1,1.2.3c.7-2.5,1.2-5.1,1.4-7.7s-1.2-.8-1.2,0h0Z"/>
  <path class="st0" d="M48.2,38.4c.1.5.2.9.2,1.3s0,1,0,1.4.2.5.5.5.5-.2.5-.5c0-1,0-2-.2-3s-.4-.4-.6-.3-.4.3-.3.6h0Z"/>
  <path class="st0" d="M48,38.3c.2,2,.3,4,.3,6s1,.6,1,0c0-2,0-4-.3-6s-.2-.5-.5-.5-.5.2-.5.5h0Z"/>
  <path class="st0" d="M48.5,43.6c0,.8-.3,1.6-.5,2.3s-.4,1.6-.6,2.3c-.4,1.6-.8,3.1-1.2,4.7s.8.9,1,.3c.4-1.6.8-3.3,1.2-4.9s.9-3.2,1-4.8-1-.6-1,0h0Z"/>
  <path class="st0" d="M12.8,33.9c.5-1.4,1.1-2.7,1.9-3.9s0-.6-.2-.7-.5,0-.7.2c-.9,1.3-1.6,2.7-2,4.2s0,.5.3.6.5,0,.6-.3h0Z"/>
  <path class="st0" d="M13.5,33s0-.2,0-.1c0,0,0-.1,0-.2,0-.1.1-.3.2-.4.1-.3.3-.5.4-.8.3-.5.6-.9.9-1.3s.2-.5,0-.7-.5-.2-.7,0c-.8,1-1.4,2.1-1.9,3.2s.1.6.3.6.5,0,.6-.3h0Z"/>
  <path class="st0" d="M48,37.8l.6,2.2c0,.3.4.4.6.3s.4-.3.3-.6l-.6-2.2c0-.3-.4-.4-.6-.3s-.4.3-.3.6h0Z"/>
  <path class="st0" d="M48.1,35.3c-.1-.1-.2-.2-.2-.3l-.9.4c.6,1.3,1,2.7,1.2,4.1s.4.4.6.3.4-.3.3-.6c-.2-1.5-.7-3-1.3-4.3s-.4-.3-.6-.2-.3.3-.3.6.2.6.5.8.5.2.7,0,.2-.5,0-.7h0Z"/>
</svg>